<?xml version="1.0" ?><svg height="32" id="svg2" version="1.1" viewBox="0 0 32 32.000001" width="32" xmlns="http://www.w3.org/2000/svg" xmlns:cc="http://creativecommons.org/ns#" xmlns:dc="http://purl.org/dc/elements/1.1/" xmlns:inkscape="http://www.inkscape.org/namespaces/inkscape" xmlns:rdf="http://www.w3.org/1999/02/22-rdf-syntax-ns#" xmlns:sodipodi="http://sodipodi.sourceforge.net/DTD/sodipodi-0.dtd" xmlns:svg="http://www.w3.org/2000/svg"><defs id="defs4"/><g id="layer1" transform="translate(0,-1020.3622)"><path d="m 17.746131,1037.1062 -3.74246,-5.988" id="path12880" style="fill:none;fill-rule:evenodd;stroke:#000000;stroke-width:1;stroke-linecap:round;stroke-linejoin:round;stroke-miterlimit:4;stroke-dasharray:none;stroke-opacity:1"/><path d="m 29.995671,1037.8564 -2.42637,-3.4001 a 3.9980463,4.0462003 0 0 1 -0.75193,-2.5711 l 0.12734,-2.5775 a 3.9980463,4.0462003 0 0 0 -0.4171,-2.0115 l -0.0631,-0.1279 a 0.99951161,1.0115501 0 0 0 -1.37939,-0.4319 l -3.58526,2.0159 0.0894,0.2712 a 1.6747946,1.6949665 0 0 0 2.45053,0.9176 l 0.70848,-0.4302" id="path12882" style="fill:none;fill-rule:evenodd;stroke:#000000;stroke-width:0.99999994;stroke-linecap:round;stroke-linejoin:round;stroke-miterlimit:4;stroke-dasharray:none;stroke-opacity:1"/><path d="m 20.245951,1029.1063 -2.0249,-3.0403 c -0.29783,-0.4472 -0.89063,-0.5873 -1.35678,-0.3207 l -0.24715,0.1413 c -0.19273,0.1103 -0.31864,0.2906 -0.36558,0.4896" id="path12884" style="fill:none;fill-rule:evenodd;stroke:#000000;stroke-width:1;stroke-linecap:round;stroke-linejoin:round;stroke-miterlimit:4;stroke-dasharray:none;stroke-opacity:1"/><path d="m 21.995821,1027.8562 -1.94734,-3.0427 c -0.28642,-0.4475 -0.85652,-0.5878 -1.3048,-0.3209 l -0.23768,0.1414" id="path12886" style="fill:none;fill-rule:evenodd;stroke:#000000;stroke-width:1;stroke-linecap:round;stroke-linejoin:round;stroke-miterlimit:4;stroke-dasharray:none;stroke-opacity:1"/><path d="m 23.995821,1026.8562 -1.94734,-3.0427 c -0.28642,-0.4476 -0.85652,-0.5877 -1.30481,-0.3208 l -0.23767,0.1413" id="path12888" style="fill:none;fill-rule:evenodd;stroke:#000000;stroke-width:1;stroke-linecap:round;stroke-linejoin:round;stroke-miterlimit:4;stroke-dasharray:none;stroke-opacity:1"/><path d="m 24.246481,1042.3558 -1.87491,-3.7324 c -0.27336,-0.5436 -0.77906,-0.9268 -1.37199,-1.0746 -0.50959,-0.1271 -0.85042,-0.4673 -1.05922,-0.7979 -1.51511,-2.3988 -4.54534,-7.1963 -4.54534,-7.1963 -0.28426,-0.4501 -0.14707,-1.0443 0.30622,-1.326 l 0.34742,-0.216 c 0.46965,-0.2919 1.08813,-0.1526 1.38545,0.312 l 1.22792,1.9187" id="path12890" style="fill:none;fill-rule:evenodd;stroke:#000000;stroke-width:1;stroke-linecap:round;stroke-linejoin:round;stroke-miterlimit:4;stroke-dasharray:none;stroke-opacity:1"/><path d="m 8.0016308,1048.8622 c 0,0.5523 -0.44771,1 -1,1 -0.55228,0 -1,-0.4477 -1,-1 0,-0.5523 1,-2 1,-2 0,0 1,1.4477 1,2 z" id="path12893" style="opacity:1;fill:none;fill-opacity:1;stroke:#000000;stroke-width:1;stroke-linecap:round;stroke-linejoin:round;stroke-miterlimit:4;stroke-dasharray:none;stroke-dashoffset:0;stroke-opacity:1"/><path d="m 11.001641,1044.8622 c 0,0.5523 -0.44772,1 -1,1 -0.5522902,0 -1.0000002,-0.4477 -1.0000002,-1 0,-0.5523 1.0000002,-2 1.0000002,-2 0,0 1,1.4477 1,2 z" id="path12895" style="opacity:1;fill:none;fill-opacity:1;stroke:#000000;stroke-width:1;stroke-linecap:round;stroke-linejoin:round;stroke-miterlimit:4;stroke-dasharray:none;stroke-dashoffset:0;stroke-opacity:1"/><path d="m 16.616541,1035.4085 c 0,0 -0.8253,-0.4186 -1.275,-0.4513 -0.5488,-0.04 -1.1419,0.046 -1.6195,0.3197 -0.7474,0.4275 -0.9737,1.4945 -1.716,1.9308 -0.5353,0.3147 -1.2782,0.098 -1.8185,0.404 -0.5747002,0.3255 -0.7921002,1.106 -1.3630002,1.438 -0.5856,0.3405 -1.45562,0.048 -1.9732,0.4854 -0.97604,0.8239 -1.5268,3.5146 -1.5268,3.5146" id="path12897" style="fill:none;fill-rule:evenodd;stroke:#000000;stroke-width:1;stroke-linecap:round;stroke-linejoin:round;stroke-miterlimit:4;stroke-dasharray:none;stroke-opacity:1"/><path d="m 16.919601,1035.8466 -3.49996,2.1914 m -3.4999602,2.1914 -6.99991,4.3828 c -1.08337,-2.281 0.01,-4.7679 2.14217,-6.1042 l 9.7271502,-6.0951" id="path12899" style="opacity:1;fill:none;fill-opacity:1;stroke:#000000;stroke-width:1;stroke-linecap:butt;stroke-linejoin:miter;stroke-miterlimit:4;stroke-dasharray:none;stroke-opacity:1"/><path d="m 16.919601,1035.8466 -3.49996,2.1914 m -3.4999602,2.1914 -3.49996,2.1914" id="path13473" style="opacity:1;fill:none;fill-opacity:1;stroke:#000000;stroke-width:1;stroke-linecap:round;stroke-linejoin:round;stroke-miterlimit:4;stroke-dasharray:none;stroke-opacity:1"/><path d="m 11.162821,1039.1362 a 0.5,0.5 0 0 0 0.5,0.5 0.5,0.5 0 0 0 0.5,-0.5 0.5,0.5 0 0 0 -0.5,-0.5 0.5,0.5 0 0 0 -0.5,0.5 z" id="path13579-0-7-6-0" style="opacity:1;fill:#000000;fill-opacity:1;stroke:none;stroke-width:1;stroke-linecap:round;stroke-linejoin:round;stroke-miterlimit:4;stroke-dasharray:none;stroke-opacity:1"/></g></svg>